<svg xmlns="http://www.w3.org/2000/svg" viewBox="0 0 256 256" fill="none">
  <defs>
    <linearGradient id="g" x1="32" y1="40" x2="232" y2="216" gradientUnits="userSpaceOnUse">
      <stop stop-color="#22C55E"/>
      <stop offset="0.55" stop-color="#22D3EE"/>
      <stop offset="1" stop-color="#3B82F6"/>
    </linearGradient>
  </defs>
  <path d="M62 180c28 18 60 18 92 0 26-15 44-39 56-72" stroke="url(#g)" stroke-width="18" stroke-linecap="round"/>
  <path d="M78 144c18 14 38 14 58 0 16-10 28-26 36-48" stroke="url(#g)" stroke-width="14" stroke-linecap="round" opacity="0.9"/>
  <path d="M92 114c10 10 22 10 34 0 10-7 18-18 24-32" stroke="url(#g)" stroke-width="12" stroke-linecap="round" opacity="0.85"/>
  <path d="M54 204c0-8 6-14 14-14h6c8 0 14 6 14 14v6c0 8-6 14-14 14h-6c-8 0-14-6-14-14v-6Z" fill="url(#g)" opacity="0.9"/>
</svg>

